<?xml version="1.0" encoding="UTF-8"?><svg id="DCAI_logo_lockup_horizontal" xmlns="http://www.w3.org/2000/svg" viewBox="0 0 1241.24 164.24"><defs><style>.cls-1{fill:#000;stroke-width:0px;}</style></defs><path class="cls-1" d="M42.37,1.09H0v32.41h42.37c19.51,0,32.82,11.54,39.47,24.19,7.22,13.74,8.56,32.56,0,48.85-7.69,14.64-22.18,24.19-39.47,24.19H0v32.41h42.37c33.21,0,58.08-17.75,71.31-40.4,14.22-24.35,14.89-55.74,0-81.26C100.25,18.49,75.17,1.09,42.37,1.09Z"/><path class="cls-1" d="M216,1.09c-33.2,0-58.08,17.75-71.31,40.4-13.22,22.65-15.81,54.18,0,81.26,13.42,23,38.5,40.4,71.31,40.4h42.37v-32.41h-42.37c-19.52,0-32.82-11.54-39.47-24.19-9.36-17.81-6.32-36.82,0-48.85,7.71-14.66,22.01-24.19,39.47-24.19h42.37V1.09h-42.37Z"/><polygon class="cls-1" points="337.55 1.09 273.65 163.15 311.85 163.15 357.23 42.76 404.22 163.15 443.35 163.15 377.6 1.09 337.55 1.09"/><rect class="cls-1" x="458.63" y="1.09" width="34.73" height="162.06"/><path class="cls-1" d="M590.72,1.09c19.22,0,33.15,7.3,33.15,30.38s-13.93,30.46-33.15,30.46h-16.62V1.09h16.62ZM590.46,8.31h-7.8v46.41h7.8c12.5,0,24.67-2.52,24.67-23.25s-12.17-23.16-24.67-23.16Z"/><path class="cls-1" d="M630.42,50.02c0-10.66,12.08-13.85,30.55-15.86v-1.09c0-8.31-4.53-10.99-10.24-10.99-6.38,0-9.99,3.36-10.32,8.98h-7.89c.67-9.74,9.4-15.19,18.13-15.19,12.5,0,18.04,5.87,17.96,18.63l-.08,10.41c-.08,7.64.25,12.76,1.18,17.04h-7.72c-.25-1.68-.5-3.53-.59-6.21-2.77,4.7-7.38,7.3-15.44,7.3-8.48,0-15.53-4.7-15.53-13.01ZM661.55,40.2c-13.85,1.34-22.66,3.44-22.66,9.65,0,4.28,3.27,7.13,8.73,7.13,7.13,0,13.93-3.27,13.93-13.93v-2.85Z"/><path class="cls-1" d="M687.65,23.58c2.6-4.28,6.97-7.55,14.6-7.55,10.91,0,14.86,7.05,14.86,17.37v28.53h-7.64v-26.27c0-6.96-1.18-13.01-9.9-13.01-7.38,0-11.92,5.03-11.92,14.77v24.51h-7.64V16.78h7.64v6.8Z"/><path class="cls-1" d="M736.17,1.09v9.23h-7.64V1.09h7.64ZM736.17,16.78v45.15h-7.64V16.78h7.64Z"/><path class="cls-1" d="M774.1,29.96c-1.26-5.37-5.29-7.47-10.66-7.47-4.45,0-9.48,1.59-9.48,5.71,0,3.61,2.52,5.21,6.88,6.13l6.38,1.26c8.22,1.51,15.44,4.78,15.44,13.43s-8.06,14.02-18.38,14.02c-11.83,0-18.46-7.81-19.39-15.69h8.06c1.26,5.79,4.78,9.23,11.5,9.23,5.79,0,10.49-2.43,10.49-6.71,0-4.61-4.28-6.38-9.15-7.47l-6.71-1.34c-6.13-1.34-12.84-4.03-12.84-12.5,0-7.97,8.06-12.59,18.04-12.59s16.36,5.37,17.79,14.02h-7.97Z"/><path class="cls-1" d="M799.95,23.58c2.6-4.28,6.97-7.55,14.6-7.55,10.91,0,14.86,7.05,14.86,17.37v28.53h-7.64v-26.27c0-6.96-1.18-13.01-9.9-13.01-7.38,0-11.92,5.03-11.92,14.77v24.51h-7.64V1.09h7.64v22.49Z"/><path class="cls-1" d="M912.91,42.55c-2.69,13.43-13.18,20.48-26.35,20.48-17.46,0-27.61-13.18-27.61-31.64s11.16-31.39,28.28-31.39c12.59,0,22.66,7.47,25.35,20.48h-8.31c-1.76-7.64-7.81-13.26-17.46-13.26-10.74,0-19.13,8.39-19.13,24.17s8.06,24.42,19.39,24.42c9.74,0,15.61-5.46,17.54-13.26h8.31Z"/><path class="cls-1" d="M927.6,41.88c.25,9.74,7.3,14.43,13.93,14.43s10.41-3.02,12.34-7.47h7.89c-2.01,7.72-9.23,14.18-20.23,14.18-14.27,0-22.15-10.24-22.15-23.58,0-14.35,9.57-23.41,21.9-23.41,13.85,0,21.99,11.5,21.07,25.85h-34.75ZM927.69,35.33h26.6c-.25-6.38-4.87-12.76-13.01-12.76-6.71,0-12.92,3.69-13.6,12.76Z"/><path class="cls-1" d="M978.88,23.58c2.6-4.28,6.97-7.55,14.6-7.55,10.91,0,14.86,7.05,14.86,17.37v28.53h-7.64v-26.27c0-6.96-1.18-13.01-9.9-13.01-7.38,0-11.92,5.03-11.92,14.77v24.51h-7.64V16.78h7.64v6.8Z"/><path class="cls-1" d="M1021.94,5.46h7.64v11.33h8.56v6.13h-8.56v26.77c0,4.7.34,5.88,4.7,5.88h3.86v6.38h-5.54c-8.64,0-10.66-1.93-10.66-11.33v-27.7h-7.13v-6.13h7.13V5.46Z"/><path class="cls-1" d="M1069.52,24.76c-1.59-.25-3.02-.34-4.28-.34-7.05,0-10.57,3.86-10.57,13.85v23.67h-7.64V16.78h7.47v7.89c2.27-5.12,6.8-7.89,12.76-8.14.76,0,1.34,0,2.27.08v8.14Z"/><path class="cls-1" d="M1081.1,41.88c.25,9.74,7.3,14.43,13.93,14.43s10.41-3.02,12.34-7.47h7.89c-2.01,7.72-9.23,14.18-20.23,14.18-14.27,0-22.15-10.24-22.15-23.58,0-14.35,9.57-23.41,21.9-23.41,13.85,0,21.99,11.5,21.07,25.85h-34.75ZM1081.19,35.33h26.6c-.25-6.38-4.87-12.76-13.01-12.76-6.71,0-12.92,3.69-13.6,12.76Z"/><path class="cls-1" d="M1146.57,13.51c0-9.4,1.85-12.42,12.17-12.42h3.94v6.38h-3.78c-4.03,0-4.7.92-4.7,5.62v3.69h8.48v6.13h-8.48v39.03h-7.64V22.91h-6.29v-6.13h6.29v-3.27Z"/><path class="cls-1" d="M1209.6,39.53c0,16.37-11.16,23.5-21.65,23.5s-21.65-7.13-21.65-23.5,11.16-23.5,21.65-23.5,21.65,7.13,21.65,23.5ZM1187.94,56.31c6.96,0,13.51-5.2,13.51-16.78s-6.55-16.79-13.51-16.79-13.51,4.45-13.51,16.79,6.54,16.78,13.51,16.78Z"/><path class="cls-1" d="M1241.24,24.76c-1.59-.25-3.02-.34-4.28-.34-7.05,0-10.57,3.86-10.57,13.85v23.67h-7.64V16.78h7.47v7.89c2.27-5.12,6.8-7.89,12.76-8.14.75,0,1.34,0,2.26.08v8.14Z"/><path class="cls-1" d="M589.46,102.31h9.9l22.91,60.84h-9.23l-4.78-13.18h-27.95l-4.7,13.18h-8.73l22.58-60.84ZM582.91,142.68h22.66l-11.41-31.72-11.25,31.72Z"/><path class="cls-1" d="M638.05,163.15h-8.56v-60.84h8.56v60.84Z"/><path class="cls-1" d="M680.94,163.15h-8.56v-60.84h8.56v60.84Z"/><path class="cls-1" d="M701.84,124.8c2.6-4.28,6.97-7.55,14.6-7.55,10.91,0,14.86,7.05,14.86,17.37v28.53h-7.64v-26.27c0-6.96-1.18-13.01-9.9-13.01-7.38,0-11.92,5.03-11.92,14.77v24.51h-7.64v-45.15h7.64v6.8Z"/><path class="cls-1" d="M750.35,124.8c2.6-4.28,6.97-7.55,14.6-7.55,10.91,0,14.86,7.05,14.86,17.37v28.53h-7.64v-26.27c0-6.96-1.18-13.01-9.9-13.01-7.38,0-11.92,5.03-11.92,14.77v24.51h-7.64v-45.15h7.64v6.8Z"/><path class="cls-1" d="M831.58,140.75c0,16.37-11.16,23.5-21.65,23.5s-21.65-7.13-21.65-23.5,11.16-23.5,21.65-23.5,21.65,7.13,21.65,23.5ZM809.93,157.53c6.97,0,13.51-5.2,13.51-16.78s-6.55-16.79-13.51-16.79-13.51,4.45-13.51,16.79,6.55,16.78,13.51,16.78Z"/><path class="cls-1" d="M854.58,152.58l12.25-34.58h7.89l-17.04,45.15h-6.8l-17.04-45.15h8.48l12.25,34.58Z"/><path class="cls-1" d="M876.41,151.24c0-10.66,12.08-13.85,30.55-15.86v-1.09c0-8.31-4.53-10.99-10.24-10.99-6.38,0-9.99,3.36-10.32,8.98h-7.89c.67-9.74,9.4-15.19,18.13-15.19,12.5,0,18.04,5.87,17.96,18.63l-.08,10.41c-.08,7.64.25,12.76,1.18,17.04h-7.72c-.25-1.68-.5-3.53-.59-6.21-2.77,4.7-7.38,7.3-15.44,7.3-8.48,0-15.53-4.7-15.53-13.01ZM907.54,141.42c-13.85,1.34-22.66,3.44-22.66,9.65,0,4.28,3.27,7.13,8.73,7.13,7.13,0,13.93-3.27,13.93-13.93v-2.85Z"/><path class="cls-1" d="M928.19,106.67h7.64v11.33h8.56v6.13h-8.56v26.77c0,4.7.34,5.88,4.7,5.88h3.86v6.38h-5.54c-8.64,0-10.66-1.93-10.66-11.33v-27.7h-7.13v-6.13h7.13v-11.33Z"/><path class="cls-1" d="M961.76,102.31v9.23h-7.64v-9.23h7.64ZM961.76,118v45.15h-7.64v-45.15h7.64Z"/><path class="cls-1" d="M1014.21,140.75c0,16.37-11.16,23.5-21.65,23.5s-21.65-7.13-21.65-23.5,11.16-23.5,21.65-23.5,21.65,7.13,21.65,23.5ZM992.56,157.53c6.97,0,13.51-5.2,13.51-16.78s-6.55-16.79-13.51-16.79-13.51,4.45-13.51,16.79,6.55,16.78,13.51,16.78Z"/><path class="cls-1" d="M1031,124.8c2.6-4.28,6.97-7.55,14.6-7.55,10.91,0,14.86,7.05,14.86,17.37v28.53h-7.64v-26.27c0-6.96-1.18-13.01-9.9-13.01-7.38,0-11.92,5.03-11.92,14.77v24.51h-7.64v-45.15h7.64v6.8Z"/></svg>